<?xml version="1.0" encoding="utf-8" ?>
<svg xmlns="http://www.w3.org/2000/svg" xmlns:xlink="http://www.w3.org/1999/xlink" width="2000" height="2000">
	<path d="M174.182 624.918C181.173 628.794 189.245 631.677 195.858 635.959C194.862 663.2 195.325 690.574 195.294 717.833C195.222 781.545 196.016 845.369 194.952 909.064Q206.478 909.309 218.006 909.372C217.817 923.949 218.491 938.863 217.566 953.381L203.591 957.354C192.79 956.475 181.392 957.089 170.518 956.94C164.83 954.4 158.4 954.895 152.307 954.86Q152.444 932.11 152.27 909.361L174.687 909.138C176.503 878.557 175.099 847.053 175.1 816.398L174.182 624.918Z"/>
	<path fill="#F36C50" d="M170.518 956.94C181.392 957.089 192.79 956.475 203.591 957.354L240.64 1120.47C243.849 1134.58 254.358 1171.64 254.587 1184.33C254.667 1188.72 252.917 1193.15 249.721 1196.18C245.866 1199.84 240.494 1201.39 235.337 1202.02C223.412 1203.47 210.184 1201.98 198.082 1201.93C180.865 1201.86 163.609 1202.7 146.401 1202.38C133.174 1202.13 126.95 1198.27 118.17 1189.07C118.085 1186.41 117.865 1183.54 118.336 1180.91C119.483 1174.51 122.104 1167.93 123.759 1161.59C127.351 1147.81 130.432 1133.86 133.626 1119.98L170.518 956.94Z"/>
	<path d="M629.001 1588.3Q655.303 1587.94 681.604 1588.33C681.249 1610.41 681.479 1632.53 681.464 1654.61C681.45 1675.17 680.217 1706.55 684.699 1725.68C686.157 1731.89 690.045 1738.16 694.432 1742.74C701.417 1750.02 710.328 1752.97 720.264 1753.09C730.917 1753.22 740.714 1749.78 748.336 1742.2C752.688 1737.88 755.443 1733.01 757.062 1727.1C762.583 1706.96 760.58 1682.04 760.58 1661.29L760.508 1588.28Q786.867 1587.89 813.222 1588.44L813.254 1638.18C813.339 1670.71 815.715 1705 809.108 1737.02C804.808 1757.86 793.068 1777.05 774.966 1788.65C752.886 1802.81 718.087 1805.64 692.861 1799.75C671.908 1794.86 654.385 1783.04 643.007 1764.61C636.635 1754.28 633.012 1742.33 631.083 1730.42C629.826 1722.66 628.883 1714.69 628.577 1706.84C627.731 1685.04 628.603 1662.97 628.51 1641.13C628.457 1628.89 626.611 1598.17 629.001 1588.3Z"/>
	<path d="M201.122 1584.47C206.745 1584.3 212.388 1584.1 218.014 1584.14C246.87 1584.35 274.522 1594.09 294.939 1615.01C322.045 1642.79 325.557 1674.62 325.165 1711.43L217.97 1711.48C198.028 1711.46 177.827 1710.78 157.915 1711.83L156.985 1713.07C157.567 1720.94 164.846 1732.47 170.394 1738.22C180.542 1748.72 196.12 1754.42 210.454 1754.86C233.187 1755.56 249.868 1751.03 266.533 1735.41C271.812 1737.46 276.83 1740.09 281.897 1742.61C292.005 1747.53 302.319 1751.7 312.337 1756.89C308.286 1762.17 304.238 1767.53 299.48 1772.2C274.508 1796.71 245.13 1802.17 211.377 1801.88C181.533 1801.63 154.368 1791.46 133.37 1769.89C111.729 1747.66 103.594 1719.9 104.301 1689.39C104.986 1659.78 116.38 1632.03 138.071 1611.6C153.794 1596.78 179.092 1583.91 201.122 1584.47ZM199.964 1632.21C180.2 1638.94 168.435 1648.11 159.164 1667.14C159.001 1667.47 158.848 1667.81 158.691 1668.15L230.957 1668.14C243.512 1668.18 257.755 1669.54 270.094 1667.75C271.127 1664.47 268.423 1659.89 266.878 1656.9C261.084 1645.69 247.613 1637.59 235.818 1633.86C225.881 1630.71 210.359 1630.04 199.964 1632.21Z"/>
	<path fill="#29AEFC" d="M1263.3 1584.29L1277 1584.03C1309.04 1583.57 1338.2 1590.65 1361.66 1613.79C1390.01 1641.74 1393.82 1673.9 1393.85 1711.68C1337.18 1711.71 1280.44 1712.31 1223.78 1711.55C1227.02 1720.23 1230.67 1728.71 1236.75 1735.81C1246.68 1747.41 1261.17 1753.87 1276.25 1754.92C1299.67 1756.56 1317.42 1750.29 1334.94 1734.89L1344.02 1739.66C1356.27 1745.83 1369.02 1751.2 1381.43 1757.07C1377.39 1761.06 1374.21 1765.65 1370.35 1769.77C1359.29 1781.55 1344.9 1790.99 1329.51 1796.03C1297.68 1806.47 1256.64 1804.81 1226.77 1789.3Q1225.66 1788.72 1224.57 1788.12Q1223.48 1787.51 1222.4 1786.88Q1221.33 1786.24 1220.27 1785.59Q1219.21 1784.93 1218.16 1784.24Q1217.12 1783.56 1216.09 1782.85Q1215.07 1782.13 1214.06 1781.4Q1213.05 1780.66 1212.06 1779.9Q1211.07 1779.14 1210.1 1778.36Q1209.13 1777.57 1208.18 1776.76Q1207.23 1775.95 1206.3 1775.12Q1205.37 1774.29 1204.46 1773.43Q1203.55 1772.58 1202.66 1771.7Q1201.77 1770.82 1200.91 1769.92Q1200.04 1769.02 1199.2 1768.1Q1198.36 1767.18 1197.54 1766.24Q1196.72 1765.3 1195.92 1764.34Q1195.12 1763.38 1194.35 1762.4Q1193.58 1761.42 1192.83 1760.42Q1192.08 1759.42 1191.36 1758.4Q1190.64 1757.38 1189.94 1756.35Q1189.24 1755.31 1188.57 1754.26Q1187.9 1753.21 1187.25 1752.14Q1186.61 1751.07 1185.99 1749.98Q1185.37 1748.9 1184.78 1747.8Q1184.19 1746.7 1183.62 1745.59Q1183.06 1744.47 1182.52 1743.35Q1181.99 1742.22 1181.48 1741.08Q1180.97 1739.94 1180.49 1738.79Q1180.01 1737.63 1179.56 1736.47Q1179.11 1735.3 1178.69 1734.13Q1178.27 1732.95 1177.88 1731.77Q1177.48 1730.58 1177.12 1729.39C1168.05 1700.14 1170.52 1665.71 1185.09 1638.61C1196.73 1616.95 1216.21 1598.76 1239.6 1590.63C1246.78 1588.13 1254.2 1587.08 1261.42 1584.88L1263.3 1584.29ZM1268.58 1632.25C1250.06 1638.03 1237.33 1647.73 1228.26 1665.03Q1227.47 1666.51 1226.74 1668.02L1298.34 1668.05C1309.58 1668.07 1327.58 1669.83 1337.98 1667.67C1339.01 1664.85 1339.08 1663.1 1337.66 1660.37C1331.1 1647.82 1314.25 1636.63 1300.85 1633.07C1292.12 1630.76 1277.55 1630.27 1268.58 1632.25Z"/>
	<path fill="#29AEFC" d="M982.393 1588.09C993.129 1588 1003.89 1587.72 1014.62 1588.31C1021.28 1600.67 1025.56 1615.64 1030.54 1628.82C1040.15 1654.26 1050.17 1679.6 1059.11 1705.29C1061.43 1694.92 1065.84 1684.7 1069.43 1674.69C1079.59 1646.33 1092.06 1617.4 1099.64 1588.28C1117.44 1587.37 1135.97 1587.58 1153.79 1588.32C1144.9 1611.54 1136.68 1635.05 1128.22 1658.43L1096.72 1744.52C1090.07 1762.76 1082.75 1781.02 1077.24 1799.64L1042.76 1799.72C1033.62 1773.76 1023.46 1748.09 1013.76 1722.33C1008.54 1708.47 1000.7 1692.73 998.95 1678C982.903 1718.01 966.391 1758.75 952.497 1799.54C941.384 1800.27 929.872 1799.72 918.718 1799.72C895.432 1728.69 865.349 1659.67 843.06 1588.32C857.036 1587.79 881.386 1586.01 894.448 1588.5C899.513 1595.31 902.22 1606.74 905.082 1614.76L928.951 1681.71C931.726 1689.49 933.553 1698.61 937.042 1705.97C939.984 1701.14 940.524 1694.68 942.711 1689.39C952.151 1666.58 960.614 1643.49 969.43 1620.41C973.4 1610.02 976.735 1598.73 981.945 1588.91C982.091 1588.64 982.244 1588.37 982.393 1588.09Z"/>
	<path fill="#F36C50" d="M1777.57 1584.25C1811.01 1583.69 1834.88 1584.77 1863.13 1604.93Q1864.22 1605.72 1865.29 1606.54Q1866.36 1607.35 1867.4 1608.19Q1868.45 1609.04 1869.48 1609.91Q1870.5 1610.77 1871.51 1611.67Q1872.51 1612.56 1873.5 1613.48Q1874.48 1614.4 1875.44 1615.34Q1876.4 1616.28 1877.33 1617.25Q1878.27 1618.21 1879.18 1619.2Q1880.09 1620.19 1880.98 1621.2Q1881.87 1622.21 1882.73 1623.24Q1883.59 1624.27 1884.42 1625.33Q1885.26 1626.38 1886.07 1627.45Q1886.88 1628.53 1887.66 1629.62Q1888.44 1630.71 1889.2 1631.83Q1889.95 1632.94 1890.68 1634.07Q1891.41 1635.2 1892.11 1636.35Q1892.81 1637.5 1893.48 1638.66Q1894.15 1639.83 1894.79 1641.01Q1895.43 1642.19 1896.04 1643.39Q1896.65 1644.59 1897.24 1645.8Q1897.82 1647.01 1898.37 1648.24Q1898.92 1649.46 1899.44 1650.7Q1899.97 1651.94 1900.46 1653.19Q1900.95 1654.44 1901.41 1655.71Q1901.87 1656.97 1902.29 1658.25Q1902.72 1659.52 1903.12 1660.81Q1903.51 1662.09 1903.88 1663.39Q1904.24 1664.68 1904.57 1665.98Q1904.91 1667.29 1905.21 1668.6Q1905.51 1669.91 1905.77 1671.22Q1906.04 1672.54 1906.27 1673.87Q1906.51 1675.19 1906.71 1676.52C1911.11 1704.85 1903.44 1735.85 1886.32 1758.83C1871.58 1778.63 1846.89 1796.49 1821.86 1799.78C1819.37 1800.11 1817.09 1800.6 1814.67 1801.26C1814.45 1801.35 1814.23 1801.47 1813.99 1801.52C1809.94 1802.41 1804.53 1801.89 1800.37 1801.9C1781.69 1801.95 1766.34 1801.16 1749.07 1793.15C1724.28 1781.66 1701.26 1758.09 1692.13 1732.13C1682.36 1704.36 1683.52 1670.61 1696.49 1644.04C1706.85 1622.82 1729.84 1599.72 1752.12 1591.36C1759.87 1588.45 1768.13 1587.64 1775.72 1584.94C1776.34 1584.71 1776.95 1584.48 1777.57 1584.25ZM1783.62 1634.07C1766.72 1640.04 1753.58 1648.8 1745.67 1665.47C1738.08 1681.47 1737.66 1700.4 1743.78 1716.95C1748.84 1730.63 1759.73 1742.5 1773.11 1748.45C1784.53 1753.53 1796.64 1752.66 1808.78 1751.93C1825.1 1746.58 1838.47 1737.76 1846.34 1721.94C1853.86 1706.83 1854.82 1686.7 1849.32 1670.74C1844.35 1656.34 1834.3 1644.21 1820.29 1637.81C1809.15 1632.71 1795.67 1632.81 1783.62 1634.07Z"/>
	<path d="M522.335 1506.14C539.944 1506.11 557.6 1505.83 575.193 1506.66L575.11 1799.4C557.59 1799.86 539.986 1799.57 522.456 1799.63L522.39 1775.81C513.981 1785.13 500.032 1793.5 488.146 1797.61C464.273 1805.86 436.348 1803.22 413.818 1792.47C402.197 1786.16 392.452 1778.28 383.63 1768.4C363.11 1745.42 354.517 1715.57 356.574 1685.01C358.673 1653.83 369.834 1626.87 393.596 1606.12C414.624 1587.75 437.915 1582.49 465.363 1584.36C487.702 1585.89 507.676 1595.85 522.346 1612.67L522.335 1506.14ZM452.233 1634.05C435.272 1640.62 422.318 1649.61 414.837 1666.78Q414.204 1668.27 413.645 1669.79Q413.086 1671.31 412.602 1672.86Q412.118 1674.4 411.71 1675.97Q411.302 1677.54 410.972 1679.13Q410.641 1680.71 410.389 1682.31Q410.137 1683.91 409.963 1685.52Q409.789 1687.13 409.695 1688.75Q409.6 1690.37 409.585 1691.99Q409.57 1693.61 409.634 1695.23Q409.698 1696.85 409.841 1698.46Q409.985 1700.07 410.207 1701.68Q410.429 1703.28 410.73 1704.87Q411.03 1706.47 411.408 1708.04Q411.786 1709.62 412.241 1711.17Q412.696 1712.73 413.227 1714.26Q413.757 1715.79 414.362 1717.29C420.057 1731.56 431.045 1743.37 445.36 1749.25C455.706 1753.49 469.558 1753.98 480.616 1752.12C496.767 1746.83 509.38 1738.06 517.389 1722.54C525.588 1706.66 526.408 1688.13 520.744 1671.3C515.958 1657.08 506.08 1645.08 492.544 1638.38C481.018 1632.68 464.931 1631.93 452.233 1634.05Z"/>
	<path fill="#F36C50" d="M1589.96 1506.01Q1616.83 1505.92 1643.7 1506.15C1642.44 1603.91 1643.22 1701.99 1643.76 1799.77L1590.05 1799.8L1589.93 1776.91C1581.43 1785.96 1568.51 1793.62 1556.81 1797.7C1533.15 1805.94 1504.43 1803.62 1482.07 1792.81C1469.28 1786.27 1458.97 1777.11 1449.53 1766.33C1429.97 1744 1422.11 1713.34 1424.26 1684.09C1426.54 1653.17 1438.45 1625.56 1462.18 1605.2C1483.57 1586.85 1508.15 1581.8 1535.78 1584.27C1556.42 1586.12 1576.67 1596.11 1590 1611.97L1589.96 1506.01ZM1521.3 1634.08C1504.72 1640.04 1491.67 1649.11 1483.89 1665.41C1476.57 1680.73 1476.29 1699.47 1481.96 1715.35Q1482.45 1716.72 1483 1718.06Q1483.55 1719.4 1484.17 1720.71Q1484.8 1722.03 1485.48 1723.31Q1486.17 1724.58 1486.92 1725.83Q1487.67 1727.07 1488.48 1728.28Q1489.29 1729.48 1490.16 1730.64Q1491.03 1731.8 1491.95 1732.92Q1492.88 1734.04 1493.86 1735.11Q1494.84 1736.18 1495.88 1737.19Q1496.91 1738.21 1498 1739.18Q1499.08 1740.14 1500.21 1741.05Q1501.34 1741.96 1502.52 1742.81Q1503.7 1743.67 1504.91 1744.46Q1506.13 1745.25 1507.38 1745.98Q1508.64 1746.71 1509.93 1747.37Q1511.22 1748.04 1512.54 1748.64C1524.33 1754.08 1535.91 1752.45 1548.5 1752.05C1565.38 1745.79 1578.43 1736.89 1586.22 1720.19C1593.73 1704.07 1593.78 1685.16 1587.49 1668.63Q1587.01 1667.37 1586.47 1666.13Q1585.92 1664.9 1585.32 1663.69Q1584.72 1662.48 1584.06 1661.3Q1583.4 1660.13 1582.68 1658.98Q1581.97 1657.84 1581.2 1656.73Q1580.43 1655.62 1579.61 1654.55Q1578.78 1653.48 1577.91 1652.45Q1577.03 1651.42 1576.11 1650.44Q1575.19 1649.45 1574.22 1648.51Q1573.25 1647.58 1572.24 1646.68Q1571.23 1645.79 1570.17 1644.95Q1569.11 1644.11 1568.02 1643.32Q1566.93 1642.53 1565.79 1641.79Q1564.66 1641.06 1563.5 1640.38Q1562.33 1639.7 1561.13 1639.08Q1559.94 1638.45 1558.71 1637.89C1547.34 1632.72 1533.56 1632.84 1521.3 1634.08Z"/>
	<path fill="#29AEFC" d="M997.106 1064.51C1016.07 1053.56 1036.98 1044.58 1056.64 1034.87L1172.6 977.564L1299.07 915.081C1322.13 903.664 1345.24 890.971 1368.9 880.91C1378.62 876.781 1389.88 872.653 1400.53 872.52C1426.37 872.198 1450.26 880.498 1468.83 898.859Q1470.03 900.044 1471.19 901.275Q1472.35 902.506 1473.45 903.781Q1474.56 905.056 1475.62 906.373Q1476.68 907.69 1477.68 909.046Q1478.69 910.403 1479.64 911.798Q1480.59 913.192 1481.49 914.623Q1482.39 916.053 1483.23 917.517Q1484.07 918.982 1484.86 920.477Q1485.64 921.973 1486.37 923.498Q1487.09 925.023 1487.76 926.574Q1488.43 928.126 1489.03 929.703Q1489.64 931.279 1490.18 932.878Q1490.73 934.477 1491.21 936.095Q1491.69 937.714 1492.11 939.35Q1492.53 940.986 1492.88 942.637Q1493.24 944.288 1493.53 945.952C1496.31 961.011 1495.26 977.036 1495.24 992.306L1495.16 1060.83L1495.17 1312.99C1495.53 1339.68 1491.8 1363.21 1474.04 1384.24C1459.14 1401.87 1432.84 1415.76 1409.79 1417.41C1391.65 1418.71 1372.93 1417.79 1354.71 1417.78L1256.27 1417.76L945.556 1417.75L703.352 1417.71L630.918 1417.82C616.967 1417.87 602.488 1418.74 588.617 1417.26C569.219 1415.2 548.692 1406.74 534.041 1393.8C514.937 1376.92 504.109 1354.4 502.678 1328.86C501.373 1305.58 502.644 1281.55 502.632 1258.19L502.83 1103.45L502.908 1003.24C502.932 985.907 501.385 967.113 503.937 949.989C506.564 932.367 513.49 915.936 525.405 902.559C542.484 883.386 565.094 874.086 590.394 872.482C601.413 872.617 612.264 874.255 622.593 878.247C639.687 884.855 656.253 894.228 672.655 902.41L759.798 945.892L906.776 1019.24C936.886 1034.23 967.443 1048.67 997.106 1064.51Z"/>
	<path fill="#29AEFC" d="M118.235 538.901C118.612 538.38 118.998 537.863 119.368 537.336C129.629 522.734 129.903 510.78 148.046 499.92C163.83 490.473 181.966 483.367 198.704 475.702L291.293 433.361L599.132 292.333L874.996 165.945L945.81 133.479C957.884 127.95 971.509 119.974 984.429 117.077C1002.19 113.096 1019.81 118.52 1034.51 128.523C1052.27 140.604 1069 157.801 1073.03 179.612C1076.39 197.783 1074.32 218.924 1074.29 237.467L1074.14 343.978L1073.61 668.949C1073.52 722.968 1071.69 777.504 1073.56 831.465C1100.93 821.334 1127.85 807.417 1154.45 795.255C1182.44 782.457 1211.43 770.56 1238.82 756.584C1241.06 755.441 1244.77 753.948 1245.95 751.713C1249.92 744.21 1247.49 728.569 1247.53 719.914Q1247.88 673.839 1247.69 627.763C1247.67 584.223 1238.85 531.855 1288.49 511.896Q1290.08 511.27 1291.71 510.725Q1293.33 510.179 1294.98 509.715Q1296.62 509.251 1298.29 508.87Q1299.96 508.488 1301.65 508.19Q1303.33 507.893 1305.03 507.68Q1306.73 507.466 1308.44 507.338Q1310.14 507.21 1311.86 507.167Q1313.57 507.124 1315.28 507.166Q1316.99 507.208 1318.7 507.336Q1320.4 507.464 1322.1 507.676Q1323.8 507.889 1325.49 508.186Q1327.17 508.483 1328.84 508.863Q1330.51 509.244 1332.16 509.707Q1333.81 510.171 1335.43 510.716Q1337.05 511.261 1338.65 511.886Q1340.24 512.511 1341.8 513.215Q1343.24 513.852 1344.64 514.561Q1346.04 515.269 1347.41 516.046Q1348.77 516.823 1350.1 517.667Q1351.43 518.511 1352.71 519.42Q1353.99 520.329 1355.23 521.301Q1356.46 522.272 1357.65 523.304Q1358.83 524.336 1359.96 525.426Q1361.1 526.516 1362.17 527.66Q1363.25 528.805 1364.27 530.002Q1365.29 531.198 1366.25 532.445Q1367.2 533.691 1368.1 534.983Q1368.99 536.275 1369.82 537.61Q1370.65 538.945 1371.41 540.32Q1372.17 541.694 1372.87 543.105Q1373.56 544.516 1374.18 545.96Q1374.8 547.403 1375.35 548.876C1382.41 567.566 1379.89 590.526 1379.83 610.142C1379.75 637.255 1378.55 664.91 1379.95 691.97C1431.49 670.828 1482.07 645.867 1532.77 622.707L1617.84 583.853C1630.45 578.098 1643.73 572.877 1656.08 566.648C1658.45 565.451 1660.6 564.329 1661.87 561.901C1660.49 557.893 1653.86 555.098 1650.2 553.288C1634.74 545.645 1618.67 539.06 1602.95 531.97L1522.7 495.522L1274.66 382.335Q1229.51 362.226 1184.61 341.553C1168.86 334.342 1151.35 327.92 1136.98 318.179C1125.37 310.31 1117.64 298.913 1113.12 285.753C1107.9 270.549 1108.66 255.102 1115.93 240.714C1124.69 223.354 1136.77 210.348 1155.63 204.206C1169.32 199.747 1181.69 200.27 1195.25 204.763C1206.65 208.544 1217.7 214.161 1228.64 219.141L1281.16 243.093L1449.8 319.912L1728.39 446.727L1816.49 486.759C1829.21 492.515 1842.47 497.62 1854.93 503.839C1869.98 511.347 1882.61 526.826 1887.74 542.747C1891.38 554.076 1889.9 567.21 1889.71 578.964C1889.36 579.413 1888.99 579.857 1888.65 580.313C1885.91 583.917 1884.33 588.521 1882.16 592.491C1877.01 601.883 1868.58 611.725 1859.25 617.088C1847.86 623.645 1835.13 628.404 1823.15 633.79L1760.01 662.549L1529.49 767.481L1120.74 954.395C1102.03 962.791 1083.26 971.386 1064.71 980.133C1051.75 986.242 1036.78 995.904 1022.58 998.433C1003.98 1001.74 983.697 998.269 968.354 987.047C955.085 977.342 944.878 961.958 942.631 945.521C940.39 929.129 941.938 910.904 942.016 894.297L942.339 797.156L943.257 420.581L943.281 325.47C943.288 316.361 941.772 296.966 943.806 288.889L942.862 288.879C942.866 286.182 942.835 283.483 942.93 280.788C926.565 282.885 876.967 308.665 858.899 316.901L576.286 446.287C554.613 456.084 532.826 465.814 511.361 476.055C502.07 480.487 493.093 486.881 483.276 489.955L482.888 490.588C493.802 495.09 515.125 492.242 527.532 492.253L635.828 492.377C660.428 492.363 719.486 489.206 740.036 496.131Q740.846 496.402 741.648 496.695Q742.451 496.988 743.245 497.302Q744.04 497.617 744.826 497.952Q745.612 498.287 746.388 498.643Q747.165 498.998 747.932 499.375Q748.699 499.751 749.456 500.148Q750.212 500.544 750.958 500.961Q751.704 501.377 752.439 501.813Q753.173 502.249 753.896 502.705Q754.619 503.16 755.329 503.635Q756.04 504.109 756.737 504.602Q757.435 505.095 758.119 505.607Q758.803 506.118 759.474 506.648Q760.144 507.177 760.8 507.724Q761.456 508.272 762.098 508.836Q762.739 509.4 763.366 509.981Q763.992 510.562 764.602 511.16Q765.213 511.758 765.807 512.371Q766.402 512.985 766.98 513.614Q767.558 514.243 768.119 514.887Q768.68 515.531 769.224 516.19Q769.768 516.849 770.294 517.522Q770.82 518.195 771.328 518.882Q771.836 519.569 772.326 520.269Q772.815 520.969 773.286 521.681Q773.757 522.394 774.209 523.119Q774.661 523.844 775.093 524.581Q775.526 525.318 775.939 526.066Q776.351 526.814 776.744 527.572Q777.137 528.331 777.509 529.1Q777.882 529.869 778.234 530.647Q778.586 531.425 778.917 532.213C785.7 548.554 785.489 568.16 778.483 584.396C771.883 599.692 758.955 612.427 743.335 618.333Q738.658 620.058 733.786 621.116Q728.914 622.174 723.942 622.543C704.513 624.176 684.065 622.813 664.542 622.76L549.01 622.709C536.42 622.731 503.432 622.657 492.444 626.592C493.336 628.066 492.702 627.628 494.045 628.019C512.62 633.424 530.674 644.303 548.268 652.324L673.555 709.836L812.364 773.674C824.058 779.067 835.639 784.707 847.376 790.004C857.536 794.59 868.268 798.725 877.861 804.406C888.525 810.722 897.079 819.032 903.011 829.981C910.964 844.662 912.4 861.582 907.541 877.498C902.362 894.466 891.038 909.613 875.251 917.974C859.374 926.383 842.177 927.232 825.161 922C807.387 916.536 789.899 906.856 773.107 898.865L704.044 866.751L367.125 711.557Q310.306 684.946 253.121 659.13C239.172 652.771 225.463 645.549 211.306 639.69C206.616 637.749 201.029 635.267 195.858 635.959C189.245 631.677 181.173 628.794 174.182 624.918C173.962 624.751 173.745 624.579 173.521 624.417C167.155 619.819 159.01 617.875 152.067 614.245C137.919 606.846 122.177 586.41 119.115 570.755C117.113 560.521 118.076 549.295 118.235 538.901Z"/>
</svg>
